<svg xmlns="http://www.w3.org/2000/svg" xmlns:xlink="http://www.w3.org/1999/xlink" width="500" zoomAndPan="magnify" viewBox="0 0 375 374.999991" height="500" preserveAspectRatio="xMidYMid meet" version="1.0"><defs><clipPath id="42ddaaa5bb"><path d="M 8.34375 8 L 366.84375 8 L 366.84375 367 L 8.34375 367 Z M 8.34375 8 " clip-rule="nonzero"/></clipPath></defs><g clip-path="url(#42ddaaa5bb)"><path fill="#ffffff" d="M 187.5 8.34375 C 88.554688 8.34375 8.34375 88.554688 8.34375 187.5 C 8.34375 286.445312 88.554688 366.65625 187.5 366.65625 C 286.445312 366.65625 366.65625 286.445312 366.65625 187.5 C 366.65625 88.554688 286.445312 8.34375 187.5 8.34375 Z M 38.203125 187.5 C 38.203125 105.046875 105.046875 38.203125 187.5 38.203125 C 269.957031 38.203125 336.796875 105.046875 336.796875 187.5 C 336.796875 254.691406 292.414062 311.511719 231.363281 330.25 C 233.03125 300.074219 232.460938 281.382812 229.648438 274.175781 C 226.679688 266.570312 224.261719 263.449219 222.808594 261.582031 C 221.859375 260.355469 221.324219 259.667969 221.324219 258.601562 C 221.324219 256.8125 222.585938 255.511719 225.109375 254.707031 C 247.105469 249.84375 261.855469 236.324219 269.363281 214.152344 C 279.757812 183.425781 264.917969 161.082031 258.914062 152.042969 C 258.417969 151.296875 257.980469 150.640625 257.625 150.078125 C 252.957031 142.707031 259.074219 124.769531 266.378906 110.410156 C 241.535156 105.433594 232.050781 116.972656 226.609375 123.59375 C 224.386719 126.296875 222.839844 128.179688 221.195312 127.777344 C 219.730469 127.421875 218.148438 126.726562 216.253906 125.894531 C 210.832031 123.511719 202.832031 119.992188 187.5 119.992188 C 168.488281 119.992188 155.890625 126.632812 153.964844 127.648438 C 153.796875 127.738281 153.707031 127.777344 153.707031 127.777344 C 143.714844 113.851562 129.523438 108.0625 111.132812 110.410156 C 116.199219 130.652344 116.578125 143.875 112.273438 150.078125 C 105.820312 159.382812 93.71875 181.03125 103.113281 214.152344 C 112.507812 247.269531 146.707031 254.707031 153.21875 254.707031 L 153.261719 254.714844 C 153.777344 254.828125 158.566406 255.863281 157.128906 259.910156 C 156.847656 260.988281 156.660156 262.453125 156.449219 264.105469 C 155.769531 269.40625 154.847656 276.613281 149.761719 278.953125 C 143.09375 282.027344 128.382812 283.707031 122.226562 279.871094 C 120.175781 278.59375 118.703125 275.917969 116.929688 272.699219 C 113.378906 266.257812 108.625 257.625 95.617188 253.609375 C 76.109375 247.585938 77.332031 255.550781 82.199219 257.503906 C 83.273438 257.933594 84.691406 258.335938 86.3125 258.796875 C 92.058594 260.421875 100.320312 262.761719 104.558594 269.578125 C 105.796875 271.578125 107.074219 273.765625 108.382812 276 C 112.789062 283.546875 117.507812 291.640625 122.226562 294.742188 C 126.304688 297.421875 136.078125 298.496094 151.542969 297.960938 C 150.871094 312.5625 150.511719 323.964844 150.464844 332.167969 C 85.925781 315.695312 38.203125 257.171875 38.203125 187.5 Z M 38.203125 187.5 " fill-opacity="0.85" fill-rule="evenodd"/></g></svg>